<svg width="1920" height="573" viewBox="0 0 1920 573" fill="none" xmlns="http://www.w3.org/2000/svg">
<path d="M523.527 0.5L-389.784 572.898M569.471 0.5L-207.861 572.898M615.416 0.5L-42.3975 572.898M661.361 0.5L110.71 572.898M707.305 0.5L254.463 572.898M753.25 0.5L391.141 572.898M799.194 0.5L522.532 572.898M845.139 0.5L650.093 572.898M891.083 0.5L775.057 572.898M937.028 0.5L898.517 572.898M982.972 0.5L1021.48 572.898M1028.92 0.5L1144.94 572.898M1074.86 0.5L1269.91 572.898M1120.81 0.5L1397.47 572.898M1166.75 0.5L1528.86 572.898M1212.69 0.5L1665.54 572.898M1258.64 0.5L1809.29 572.898M1304.58 0.5L1962.4 572.898M1350.53 0.5L2127.86 572.898M1396.47 0.5L2309.78 572.898M477.581 0.500933H1442.42M477.579 0.501857H1442.42M477.576 0.503816H1442.42M477.57 0.506816H1442.43M477.561 0.511774H1442.44M477.547 0.51926H1442.45M477.526 0.530649H1442.47M477.495 0.546793H1442.5M477.453 0.569444H1442.55M477.393 0.600985H1442.61M477.314 0.643559H1442.69M477.208 0.699962H1442.79M477.07 0.773626H1442.93M476.893 0.868407H1443.11M476.667 0.988953H1443.33M476.384 1.14039H1443.62M476.031 1.32875H1443.97M475.597 1.56077H1444.4M475.066 1.84419H1444.93M474.423 2.18751H1445.58M473.65 2.60043H1446.35M472.727 3.09369H1447.27M471.631 3.67914H1448.37M470.338 4.36993H1449.66M468.82 5.18056H1451.18M467.049 6.1269H1452.95M464.99 7.22635H1455.01M462.61 8.49794H1457.39M459.869 9.96229H1460.13M456.724 11.6418H1463.28M453.132 13.5608H1466.87M449.042 15.7456H1470.96M444.401 18.2245H1475.6M439.153 21.028H1480.85M433.235 24.189H1486.76M426.583 27.7425H1493.42M419.126 31.7261H1500.87M410.788 36.18H1509.21M401.489 41.1474H1518.51M391.143 46.6738H1528.86M379.659 52.808H1540.34M366.941 59.6016H1553.06M352.886 67.1097H1567.11M337.384 75.3904H1582.62M320.32 84.5054H1599.68M301.573 94.5198H1618.43M281.012 105.503H1638.99M258.503 117.526H1661.5M233.902 130.668H1686.1M207.057 145.008H1712.94M177.81 160.631H1742.19M145.994 177.626H1774.01M111.433 196.088H1808.57M73.9423 216.114H1846.06M33.3297 237.808H1886.67M-10.6076 261.279H1930.61M-58.0814 286.638H1978.08M-109.313 314.005H2029.31M-164.535 343.503H2084.54M-223.989 375.261H2143.99M-287.928 409.416H2207.93M-356.615 446.107H2276.61M-430.326 485.481H2350.33M-509.346 527.692H2429.35M477.583 0.5L-593.975 572.898H2513.98L1442.42 0.5H477.583Z" stroke="url(#paint0_linear_43_359)"/>
<defs>
<linearGradient id="paint0_linear_43_359" x1="960" y1="572.898" x2="960" y2="0.5" gradientUnits="userSpaceOnUse">
<stop stop-color="#151515"/>
<stop offset="0.495192" stop-color="#373737"/>
<stop offset="1" stop-color="#151515"/>
</linearGradient>
</defs>
</svg>
