<svg width="50" height="50" viewBox="0 0 50 50" fill="none" xmlns="http://www.w3.org/2000/svg">
<path d="M32.2916 18.7501L32.6491 19.1076C35.4268 21.8853 36.8157 23.2742 36.8157 25.0001C36.8157 26.726 35.4268 28.1149 32.6491 30.8927L32.2916 31.2501" stroke="#4C8C74" stroke-width="2" stroke-linecap="round"/>
<path d="M27.696 14.9385L25 25.0002L22.3039 35.0619" stroke="#4C8C74" stroke-width="2" stroke-linecap="round"/>
<path d="M17.7083 18.7501L17.3509 19.1076C14.5731 21.8853 13.1842 23.2742 13.1842 25.0001C13.1842 26.726 14.5731 28.1149 17.3509 30.8927L17.7083 31.2501" stroke="#4C8C74" stroke-width="2" stroke-linecap="round"/>
<path d="M4.16663 25.0001C4.16663 15.1792 4.16663 10.2687 7.2176 7.21772C10.2686 4.16675 15.179 4.16675 25 4.16675C34.8209 4.16675 39.7314 4.16675 42.7823 7.21772C45.8333 10.2687 45.8333 15.1792 45.8333 25.0001C45.8333 34.821 45.8333 39.7315 42.7823 42.7824C39.7314 45.8334 34.8209 45.8334 25 45.8334C15.179 45.8334 10.2686 45.8334 7.2176 42.7824C4.16663 39.7315 4.16663 34.821 4.16663 25.0001Z" stroke="#4C8C74" stroke-width="2"/>
</svg>
