<svg width="50" height="50" viewBox="0 0 50 50" fill="none" xmlns="http://www.w3.org/2000/svg">
<path d="M45.8333 21.875V25C45.8333 34.8209 45.8333 39.7314 42.7824 42.7823C39.7314 45.8333 34.8209 45.8333 25 45.8333C15.1791 45.8333 10.2686 45.8333 7.21763 42.7823C4.16666 39.7314 4.16666 34.8209 4.16666 25C4.16666 15.179 4.16666 10.2686 7.21763 7.2176C10.2686 4.16663 15.1791 4.16663 25 4.16663H28.125" stroke="#4C8C74" stroke-width="2" stroke-linecap="round"/>
<path d="M14.5833 29.1667L18.3269 24.6745C19.8103 22.8944 20.552 22.0043 21.5278 22.0043C22.5036 22.0043 23.2453 22.8944 24.7287 24.6745L25.2713 25.3256C26.7547 27.1057 27.4965 27.9958 28.4722 27.9958C29.448 27.9958 30.1897 27.1057 31.6732 25.3256L35.4167 20.8334" stroke="#4C8C74" stroke-width="2" stroke-linecap="round"/>
<circle cx="39.5833" cy="10.4166" r="6.25" stroke="#4C8C74" stroke-width="2"/>
</svg>
