<svg width="50" height="50" viewBox="0 0 50 50" fill="none" xmlns="http://www.w3.org/2000/svg">
<path d="M4.16666 12.5C4.16666 7.89759 7.89762 4.16663 12.5 4.16663C17.1024 4.16663 20.8333 7.89759 20.8333 12.5V37.5C20.8333 42.1023 17.1024 45.8333 12.5 45.8333C7.89762 45.8333 4.16666 42.1023 4.16666 37.5V12.5Z" stroke="#4C8C74" stroke-width="2"/>
<path d="M20.8333 17.1722L27.7368 10.2688C30.9912 7.01441 36.2675 7.01441 39.5219 10.2688C42.7763 13.5231 42.7763 18.7995 39.5219 22.0539L19.3883 42.1875" stroke="#4C8C74" stroke-width="2"/>
<path d="M12.5 45.8333L37.5 45.8333C42.1024 45.8333 45.8333 42.1023 45.8333 37.5C45.8333 32.8976 42.1024 29.1666 37.5 29.1666L32.2917 29.1666" stroke="#4C8C74" stroke-width="2"/>
<path d="M14.5833 37.5C14.5833 38.6506 13.6506 39.5833 12.5 39.5833C11.3494 39.5833 10.4167 38.6506 10.4167 37.5C10.4167 36.3494 11.3494 35.4166 12.5 35.4166C13.6506 35.4166 14.5833 36.3494 14.5833 37.5Z" stroke="#4C8C74" stroke-width="2"/>
</svg>
